<svg width="547" height="145" viewBox="0 0 547 145" fill="none" xmlns="http://www.w3.org/2000/svg">
<path d="M214.588 59.2812C212.159 39.125 196.903 27.5341 176.705 27.5341C153.651 27.5341 136.051 43.8125 136.051 72.3636C136.051 100.83 153.352 117.193 176.705 117.193C199.077 117.193 212.585 102.321 214.588 86.2557L195.923 86.1705C194.176 95.5028 186.847 100.872 177.003 100.872C163.75 100.872 154.759 91.0284 154.759 72.3636C154.759 54.2102 163.622 43.8551 177.131 43.8551C187.23 43.8551 194.517 49.6932 195.923 59.2812H214.588ZM249.232 78.1591C249.275 69.7216 254.431 64.7784 261.846 64.7784C269.218 64.7784 273.564 69.5085 273.522 77.5625V116H291.675V74.3239C291.718 58.983 282.684 49.6932 269.047 49.6932C259.118 49.6932 252.471 54.3807 249.488 62.0938H248.721V28.7273H231.079V116H249.232V78.1591ZM328.226 117.236C337.9 117.236 344.164 113.017 347.36 106.923H347.871V116H365.087V71.8523C365.087 56.2557 351.877 49.6932 337.303 49.6932C321.621 49.6932 311.309 57.1932 308.794 69.125L325.584 70.4886C326.82 66.142 330.698 62.946 337.218 62.946C343.397 62.946 346.934 66.0568 346.934 71.4261V71.6818C346.934 75.9006 342.459 76.4545 331.081 77.5625C318.127 78.7557 306.493 83.1023 306.493 97.7188C306.493 110.673 315.74 117.236 328.226 117.236ZM333.425 104.707C327.843 104.707 323.837 102.108 323.837 97.1222C323.837 92.0085 328.056 89.4943 334.448 88.5994C338.411 88.0455 344.888 87.108 347.062 85.6591V92.6051C347.062 99.4659 341.394 104.707 333.425 104.707ZM417.586 50.5455H405.271V34.8636H387.117V50.5455H378.169V64.1818H387.117V98.2727C387.032 111.099 395.768 117.449 408.936 116.895C413.623 116.724 416.947 115.787 418.779 115.19L415.924 101.682C415.029 101.852 413.112 102.278 411.407 102.278C407.785 102.278 405.271 100.915 405.271 95.8864V64.1818H417.586V50.5455ZM467.827 50.5455H455.512V34.8636H437.358V50.5455H428.409V64.1818H437.358V98.2727C437.273 111.099 446.009 117.449 459.176 116.895C463.864 116.724 467.188 115.787 469.02 115.19L466.165 101.682C465.27 101.852 463.352 102.278 461.648 102.278C458.026 102.278 455.512 100.915 455.512 95.8864V64.1818H467.827V50.5455ZM494.46 140.545C507.968 140.545 515.127 133.642 518.835 123.074L544.275 50.6307L525.056 50.5455L511.377 98.6136H510.695L497.144 50.5455H478.053L501.533 117.875L500.468 120.645C498.082 126.781 493.522 127.08 487.13 125.119L483.039 138.67C485.638 139.778 489.857 140.545 494.46 140.545Z" fill="#3AA9CC"/>
<path d="M64.9998 92.1868C69.6924 92.1908 74.3128 91.032 78.448 88.8137C82.5832 86.5955 86.1043 83.387 88.6963 79.4752L81.9282 74.978C80.0754 77.7719 77.56 80.0638 74.6062 81.6492C71.6524 83.2347 68.3521 84.0644 64.9998 84.0644C61.6474 84.0644 58.3471 83.2347 55.3933 81.6492C52.4395 80.0638 49.9241 77.7719 48.0713 74.978L41.3032 79.4752C43.8952 83.387 47.4163 86.5955 51.5515 88.8137C55.6867 91.032 60.3071 92.1908 64.9998 92.1868Z" fill="#3AA9CC"/>
<path d="M48.75 47.5004C50.357 47.5004 51.9279 47.9769 53.264 48.8697C54.6002 49.7625 55.6416 51.0315 56.2565 52.5161C56.8715 54.0008 57.0324 55.6344 56.7189 57.2105C56.4054 58.7866 55.6315 60.2344 54.4952 61.3707C53.3589 62.507 51.9112 63.2808 50.3351 63.5943C48.759 63.9078 47.1253 63.7469 45.6407 63.132C44.156 62.517 42.8871 61.4756 41.9943 60.1394C41.1015 58.8033 40.625 57.2324 40.625 55.6254C40.6141 54.5554 40.8169 53.494 41.2213 52.5033C41.6258 51.5126 42.2239 50.6126 42.9805 49.856C43.7372 49.0993 44.6372 48.5012 45.6279 48.0968C46.6186 47.6923 47.68 47.4896 48.75 47.5004V47.5004Z" fill="#3AA9CC"/>
<path d="M81.25 47.5004C82.857 47.5004 84.4279 47.9769 85.764 48.8697C87.1002 49.7625 88.1416 51.0315 88.7565 52.5161C89.3715 54.0008 89.5324 55.6344 89.2189 57.2105C88.9054 58.7866 88.1315 60.2344 86.9952 61.3707C85.8589 62.507 84.4112 63.2808 82.8351 63.5943C81.259 63.9078 79.6253 63.7469 78.1407 63.132C76.656 62.517 75.3871 61.4756 74.4943 60.1394C73.6015 58.8033 73.125 57.2324 73.125 55.6254C73.1141 54.5554 73.3169 53.494 73.7213 52.5033C74.1258 51.5126 74.7239 50.6126 75.4805 49.856C76.2372 49.0993 77.1372 48.5012 78.1279 48.0968C79.1186 47.6923 80.18 47.4896 81.25 47.5004V47.5004Z" fill="#3AA9CC"/>
<path d="M57.9475 136.875L65 132.812L48.75 104.375H24.375C23.3076 104.377 22.2503 104.168 21.2638 103.76C20.2773 103.352 19.381 102.754 18.6262 101.999C17.8714 101.244 17.273 100.348 16.8652 99.3612C16.4575 98.3747 16.2484 97.3174 16.25 96.25V39.375C16.2484 38.3076 16.4575 37.2503 16.8652 36.2638C17.273 35.2773 17.8714 34.381 18.6262 33.6262C19.381 32.8714 20.2773 32.273 21.2638 31.8652C22.2503 31.4575 23.3076 31.2484 24.375 31.25H105.625C106.692 31.2484 107.75 31.4575 108.736 31.8652C109.723 32.273 110.619 32.8714 111.374 33.6262C112.129 34.381 112.727 35.2773 113.135 36.2638C113.543 37.2503 113.752 38.3076 113.75 39.375V96.25C113.752 97.3174 113.543 98.3747 113.135 99.3612C112.727 100.348 112.129 101.244 111.374 101.999C110.619 102.754 109.723 103.352 108.736 103.76C107.75 104.168 106.692 104.377 105.625 104.375H69.0625V112.5H105.625C109.935 112.5 114.068 110.788 117.115 107.74C120.163 104.693 121.875 100.56 121.875 96.25V39.375C121.876 37.2409 121.456 35.1275 120.639 33.1558C119.823 31.184 118.626 29.3924 117.117 27.8833C115.608 26.3743 113.816 25.1773 111.844 24.3609C109.872 23.5444 107.759 23.1245 105.625 23.125H24.375C22.2409 23.1245 20.1275 23.5444 18.1558 24.3609C16.184 25.1773 14.3924 26.3743 12.8833 27.8833C11.3743 29.3924 10.1773 31.184 9.36087 33.1558C8.54442 35.1275 8.12447 37.2409 8.125 39.375V96.25C8.125 100.56 9.83705 104.693 12.8845 107.74C15.932 110.788 20.0652 112.5 24.375 112.5H44.0172L57.9475 136.875Z" fill="#3AA9CC"/>
</svg>
